<svg xmlns="http://www.w3.org/2000/svg" width="40" height="25" viewBox="0 0 40 25">
  <defs>
    <style>
      .cls-1 {
        fill-rule: evenodd;
      }
    </style>
  </defs>
  <path id="icon" class="cls-1" d="M812.241,1294.18v-4.93a6.236,6.236,0,0,0-6.211-6.25H783.97a6.235,6.235,0,0,0-6.211,6.25v4.93a3.484,3.484,0,0,0-2.759,3.41v4.16a0.691,0.691,0,0,0,.69.69h0.689V1308h1.38v-3.47h34.482V1308h1.38v-5.56h0.689a0.691,0.691,0,0,0,.69-0.69v-4.16A3.484,3.484,0,0,0,812.241,1294.18Zm-33.1-4.93a4.852,4.852,0,0,1,4.832-4.86h22.059a4.852,4.852,0,0,1,4.833,4.86v4.86h-3.448v-4.17a0.7,0.7,0,0,0-.433-0.64,10.954,10.954,0,0,0-10.858,0,0.7,0.7,0,0,0-.433.64v4.17h-1.38v-4.17a0.7,0.7,0,0,0-.433-0.64,10.954,10.954,0,0,0-10.858,0,0.7,0.7,0,0,0-.433.64v4.17h-3.448v-4.86Zm26.9,4.86h-8.965v-3.69a9.172,9.172,0,0,1,8.965,0v3.69Zm-13.1,0h-8.966v-3.69a9.174,9.174,0,0,1,8.966,0v3.69Zm19.31,9.03H777.759v-0.7h34.482v0.7Zm1.38-2.08H776.379v-3.47a2.086,2.086,0,0,1,2.073-2.09h33.1a2.086,2.086,0,0,1,2.073,2.09v3.47Z" transform="translate(-775 -1283)"/>
</svg>
