<svg xmlns="http://www.w3.org/2000/svg" width="800" height="650" viewBox="0 0 800 650">
  <defs>
    <style>
      .cls-1 {
        fill-rule: evenodd;
      }
    </style>
  </defs>
  <path class="cls-1" d="M787.475,0.437H636.924A12.515,12.515,0,0,0,624.4,12.953V169.745H481.561a12.513,12.513,0,0,0-12.522,12.515V311.411H323.1a12.514,12.514,0,0,0-12.524,12.516v149.4h-139.8a12.515,12.515,0,0,0-12.525,12.516V624.97H12.523a12.516,12.516,0,1,0,0,25.031H170.779A12.513,12.513,0,0,0,183.3,637.486V498.356H323.1a12.512,12.512,0,0,0,12.523-12.514v-149.4H481.561a12.514,12.514,0,0,0,12.525-12.514V194.775H636.924a12.514,12.514,0,0,0,12.524-12.515V25.467H787.475A12.515,12.515,0,1,0,787.475.437ZM100.018,224.855a12.028,12.028,0,0,0,8.52-3.525l178.5-178.383V162.841a12.963,12.963,0,0,0,25.926,0V12.953A12.949,12.949,0,0,0,300.005,0H150.015a12.954,12.954,0,1,0,0,25.908H269.991L91.5,204.277A12.052,12.052,0,0,0,100.018,224.855Z"/>
</svg>
