<svg xmlns="http://www.w3.org/2000/svg" width="33" height="30" viewBox="0 0 33 30">
  <defs>
    <style>
      .cls-1 {
        fill-rule: evenodd;
      }
    </style>
  </defs>
  <path id="icon" class="cls-1" d="M579.826,1277H575.5a0.5,0.5,0,1,0,0,1h4.325A0.5,0.5,0,1,0,579.826,1277Zm0,28.5H575.5a0.5,0.5,0,1,0,0,1h4.325A0.5,0.5,0,1,0,579.826,1305.5Zm-3.532-2.49a0.511,0.511,0,0,0-.708,0,0.5,0.5,0,0,0,0,.71l1.613,1.61a0.5,0.5,0,0,0,.71,0l0.109-.11h0l1.488-1.48a0.5,0.5,0,0,0,0-.71,0.494,0.494,0,0,0-.709,0l-0.633.63v-23.82l0.7,0.7a0.494,0.494,0,0,0,.709,0,0.5,0.5,0,0,0,0-.71l-1.559-1.56a0.484,0.484,0,0,0-.163-0.1,0.508,0.508,0,0,0-.383,0,0.5,0.5,0,0,0-.164.1l-1.676,1.68a0.5,0.5,0,0,0,0,.71,0.519,0.519,0,0,0,.709,0l0.821-.82v24.04Zm17.2-.23v-1.29h2.256a0.505,0.505,0,0,0,.5-0.5,0.5,0.5,0,0,0-.5-0.5H593.49v-6.33h4.136v3.38a0.5,0.5,0,0,0,1,0V1277.5a0.5,0.5,0,0,0-.5-0.5H582.02a0.5,0.5,0,0,0-.5.5V1306a0.5,0.5,0,0,0,.5.5h5.139a0.5,0.5,0,0,0,.5-0.5v-4.51h4.826v1.29A0.5,0.5,0,0,0,593.49,1302.78Zm0-9.62v-6.95h4.136v6.95H593.49Zm4.136-7.96H593.49V1278h4.136v7.2Zm-5.139,0h-4.826V1278h4.826v7.2Zm-5.829,0h-4.137V1278h4.137v7.2Zm-4.137,8.96h4.137v6.33h-4.137v-6.33Zm0-1v-6.95h4.137v6.95h-4.137Zm5.14-6.95h4.826v6.95h-4.826v-6.95Zm-1,19.29h-4.137v-4.01h4.137v4.01Zm1-5.01v-6.33h4.826v6.33h-4.826Zm16.421,2.22v-2.45l-2.453,2.45h2.453Zm3.879-10.21a0.474,0.474,0,0,0-.271-0.27,0.467,0.467,0,0,0-.384,0,0.49,0.49,0,0,0-.162.1l-13.821,13.81a0.616,0.616,0,0,0-.109.17,0.5,0.5,0,0,0,.272.65,0.428,0.428,0,0,0,.192.04H607.5a0.5,0.5,0,0,0,.5-0.5v-13.81A0.461,0.461,0,0,0,607.961,1292.5Zm-2.876,10.28a0.491,0.491,0,0,1-.055.22,0.431,0.431,0,0,1,.055.21,0.5,0.5,0,0,1-.5.5h-4.165a0.612,0.612,0,0,1-.192-0.03,0.506,0.506,0,0,1-.272-0.27,0.516,0.516,0,0,1,0-.39,0.568,0.568,0,0,1,.109-0.16l4.165-4.16a0.391,0.391,0,0,1,.164-0.11,0.508,0.508,0,0,1,.383,0,0.5,0.5,0,0,1,.31.46v3.73h0Z" transform="translate(-575 -1277)"/>
</svg>
