<svg xmlns="http://www.w3.org/2000/svg" width="611" height="611.375" viewBox="0 0 611 611.375">
  <defs>
    <style>
      .cls-1 {
        fill-rule: evenodd;
      }
    </style>
  </defs>
  <path id="Forma_1" data-name="Forma 1" class="cls-1" d="M525.678,612.389H462.034a11.859,11.859,0,0,1-11.858-11.858V547.113H163.826v53.418a11.858,11.858,0,0,1-11.857,11.858H88.325a11.858,11.858,0,0,1-11.857-11.858V547.113H38.552A11.858,11.858,0,0,1,26.7,535.256V386.263a62.059,62.059,0,0,1,49.775-60.755V293.387a113.981,113.981,0,0,1,113.85-113.853H423.685A113.98,113.98,0,0,1,537.536,293.387v32.118a62.061,62.061,0,0,1,49.771,60.755V535.253a11.858,11.858,0,0,1-11.856,11.858H537.536v53.417A11.86,11.86,0,0,1,525.678,612.389ZM473.89,588.675h39.932V547.113H473.89v41.562Zm-373.708,0h39.931V547.113H100.182v41.562Zm425.5-65.275h37.915V386.263a38.285,38.285,0,0,0-38.241-38.245H88.651a38.289,38.289,0,0,0-38.245,38.245V523.4H525.678ZM461.92,324.3h51.9V293.387a90.24,90.24,0,0,0-90.137-90.139H190.318a90.239,90.239,0,0,0-90.136,90.139V324.3H341.306A61.463,61.463,0,0,1,461.92,324.3Zm-96.141,0h71.669A37.748,37.748,0,0,0,365.779,324.3ZM493.854,492.091a43.679,43.679,0,1,1,43.679-43.681A43.728,43.728,0,0,1,493.854,492.091Zm0-63.645a19.966,19.966,0,1,0,19.965,19.964A19.986,19.986,0,0,0,493.854,428.446Zm-75.033,63.645H195.179a11.857,11.857,0,1,1,0-23.714H418.818A11.857,11.857,0,0,1,418.821,492.091Zm-298.676,0a43.679,43.679,0,1,1,43.678-43.681A43.727,43.727,0,0,1,120.145,492.091Zm0-63.645A19.966,19.966,0,1,0,140.11,448.41,19.985,19.985,0,0,0,120.145,428.446Zm298.676,0H195.179a11.857,11.857,0,1,1,0-23.713H418.818A11.857,11.857,0,0,1,418.821,428.446ZM601.135,148.831a11.867,11.867,0,0,1-4.618-.94L307,25.35,17.483,147.888a11.858,11.858,0,1,1-9.242-21.84L302.38,1.551A11.848,11.848,0,0,1,307,.611h0.011a11.788,11.788,0,0,1,4.278.8c0.131,0.05.257,0.1,0.385,0.157L605.763,126.048A11.862,11.862,0,0,1,601.135,148.831Z" transform="translate(-1 -0.625)"/>
</svg>
